<svg width="24" height="25" viewBox="0 0 24 25" fill="none" xmlns="http://www.w3.org/2000/svg">
<path d="M21 0H3C1.3125 0 0 1.35938 0 3V16.5C0 18.1875 1.3125 19.5 3 19.5H7.5V23.4375C7.5 23.9062 8.01562 24.1875 8.39062 23.9062L14.25 19.5H21C22.6406 19.5 24 18.1875 24 16.5V3C24 1.35938 22.6406 0 21 0ZM13.5 12.375C13.5 12.6094 13.3125 12.75 13.125 12.75H6.375C6.14062 12.75 6 12.6094 6 12.375V11.625C6 11.4375 6.14062 11.25 6.375 11.25H13.125C13.3125 11.25 13.5 11.4375 13.5 11.625V12.375ZM18 7.875C18 8.10938 17.8125 8.25 17.625 8.25H6.375C6.14062 8.25 6 8.10938 6 7.875V7.125C6 6.9375 6.14062 6.75 6.375 6.75H17.625C17.8125 6.75 18 6.9375 18 7.125V7.875Z" fill="#D2D2D2"/>
</svg>
