<svg id="Слой_1" data-name="Слой 1" xmlns="http://www.w3.org/2000/svg" width="172.90554" height="150" viewBox="0 0 99.65918 86.4569">
  <defs>
    <style>
      .cls-1 {
        fill: none;
        stroke: #3180c4;
        stroke-linejoin: round;
        stroke-width: 2px;
      }
    </style>
  </defs>
  <title>ico</title>
  <path class="cls-1" d="M2.56116,40.7418,17.72175,11.0134l14.883,29.20867M70.45424,80.43851l-10.12465.01839m-31.12465-.01839,23.12465.01839M97.098,40.7418,81.93743,11.0134,67.08908,40.22207m.79792,34.198L55.67527,67.38648H49.84694m-.0001,18.07042H70.32959V74.42012H49.84684m4.406-7.03364V17.11154l4.75286-4.74684h-9.1588a5.73529,5.73529,0,0,0,5.62017-5.75165A5.63761,5.63761,0,0,0,49.84694,1m3.57332,1.31664c9.818-.27719,14.22389,6.44462,22.13377,6.51391,1.56116,0,2.01216-.48508,2.22032-1.282a4.54471,4.54471,0,0,1,9.08941,0c.06939,3.742-3.46924,5.43981-7.97926,5.99419C68.44208,14.79009,60.15059,7.34066,55.32834,7.8604m27.00125,3.5965v29M31.77218,74.42012l12.21174-7.03364h5.863m-.0001,18.07042H29.32959V74.42012H49.84684M45.441,67.38648V17.11154L40.68814,12.3647h9.1588a5.7124,5.7124,0,0,1-5.62017-5.75165A5.61525,5.61525,0,0,1,49.84694,1m-3.608,1.31664c-9.818-.27719-14.18921,6.44462-22.09908,6.51391-1.56116,0-2.01216-.48508-2.255-1.282a4.54471,4.54471,0,0,0-9.08941,0c-.0347,3.742,3.46924,5.43981,8.014,5.99419C31.2518,14.79009,39.50859,7.34066,44.36553,7.8604M17.32959,11.4569v29M1,40.7418H34.166a16.583,16.583,0,0,1-33.166,0Zm97.65918,0h-33.166a16.583,16.583,0,0,0,33.166,0Z"/>
</svg>
